<svg width="122" height="32" viewBox="0 0 122 32" fill="none" xmlns="http://www.w3.org/2000/svg">
<g filter="url(#filter0_d_303_877)">
<mask id="path-1-outside-1_303_877" maskUnits="userSpaceOnUse" x="4" y="0.668945" width="114" height="23" fill="black">
<rect fill="white" x="4" y="0.668945" width="114" height="23"/>
<path d="M22.0327 1.66895V22.0326H18.3139L9.45455 9.21582H9.3054V22.0326H5V1.66895H8.77841L17.5682 14.4758H17.7472V1.66895H22.0327Z"/>
<path d="M32.4705 22.3309C30.8995 22.3309 29.5472 22.0127 28.4137 21.3763C27.2868 20.7333 26.4184 19.8252 25.8086 18.6519C25.1987 17.472 24.8938 16.0766 24.8938 14.4658C24.8938 12.8948 25.1987 11.516 25.8086 10.3295C26.4184 9.1429 27.2769 8.21819 28.3839 7.55531C29.4975 6.89243 30.8034 6.56099 32.3015 6.56099C33.3091 6.56099 34.247 6.7234 35.1154 7.04821C35.9904 7.36639 36.7527 7.84698 37.4023 8.48997C38.0586 9.13296 38.569 9.94167 38.9336 10.9161C39.2982 11.8839 39.4805 13.0174 39.4805 14.3167V15.48H26.5842V12.855H35.4933C35.4933 12.2452 35.3607 11.7049 35.0955 11.2343C34.8304 10.7636 34.4625 10.3957 33.9918 10.1306C33.5278 9.85881 32.9876 9.72292 32.3711 9.72292C31.7281 9.72292 31.158 9.87207 30.6609 10.1704C30.1703 10.462 29.7859 10.8564 29.5075 11.3536C29.229 11.8441 29.0865 12.391 29.0799 12.9942V15.49C29.0799 16.2457 29.2191 16.8986 29.4975 17.4488C29.7826 17.999 30.1836 18.4232 30.7006 18.7215C31.2177 19.0198 31.8308 19.1689 32.5401 19.1689C33.0108 19.1689 33.4416 19.1027 33.8327 18.9701C34.2238 18.8375 34.5586 18.6386 34.837 18.3735C35.1154 18.1083 35.3275 17.7835 35.4734 17.3991L39.391 17.6576C39.1921 18.5989 38.7844 19.4208 38.168 20.1235C37.5581 20.8195 36.7693 21.3631 35.8015 21.7542C34.8403 22.1386 33.73 22.3309 32.4705 22.3309Z"/>
<path d="M45.511 6.75985L48.315 12.0993L51.1886 6.75985H55.5337L51.109 14.3962L55.6531 22.0326H51.3278L48.315 16.7528L45.3519 22.0326H40.9769L45.511 14.3962L41.136 6.75985H45.511Z"/>
<path d="M64.4031 22.3309C62.8387 22.3309 61.493 21.9994 60.3661 21.3366C59.2459 20.6671 58.3841 19.739 57.7809 18.5525C57.1843 17.3659 56.886 16.0004 56.886 14.4559C56.886 12.8915 57.1876 11.5193 57.7908 10.3394C58.4007 9.15285 59.2657 8.22813 60.386 7.56525C61.5063 6.89574 62.8387 6.56099 64.3832 6.56099C65.7156 6.56099 66.8822 6.80294 67.8832 7.28684C68.8841 7.77074 69.6762 8.4502 70.2596 9.3252C70.8429 10.2002 71.1644 11.2277 71.2241 12.4076H67.2269C67.1142 11.6453 66.8159 11.0321 66.332 10.5681C65.8548 10.0974 65.2283 9.86213 64.4528 9.86213C63.7965 9.86213 63.2231 10.0411 62.7326 10.3991C62.2487 10.7504 61.8709 11.2641 61.5991 11.9403C61.3273 12.6164 61.1914 13.435 61.1914 14.3962C61.1914 15.3707 61.324 16.1992 61.5891 16.882C61.8609 17.5648 62.2421 18.0851 62.7326 18.4431C63.2231 18.801 63.7965 18.98 64.4528 18.98C64.9367 18.98 65.3709 18.8806 65.7553 18.6817C66.1464 18.4829 66.4679 18.1945 66.7198 17.8167C66.9783 17.4322 67.1474 16.9715 67.2269 16.4346H71.2241C71.1578 17.6012 70.8396 18.6287 70.2695 19.517C69.7061 20.3986 68.9272 21.088 67.9329 21.5851C66.9386 22.0823 65.762 22.3309 64.4031 22.3309Z"/>
<path d="M80.8963 22.3309C79.3253 22.3309 77.973 22.0127 76.8395 21.3763C75.7126 20.7333 74.8442 19.8252 74.2344 18.6519C73.6245 17.472 73.3196 16.0766 73.3196 14.4658C73.3196 12.8948 73.6245 11.516 74.2344 10.3295C74.8442 9.1429 75.7026 8.21819 76.8097 7.55531C77.9233 6.89243 79.2292 6.56099 80.7273 6.56099C81.7348 6.56099 82.6728 6.7234 83.5412 7.04821C84.4162 7.36639 85.1785 7.84698 85.8281 8.48997C86.4844 9.13296 86.9948 9.94167 87.3594 10.9161C87.724 11.8839 87.9062 13.0174 87.9062 14.3167V15.48H75.0099V12.855H83.919C83.919 12.2452 83.7865 11.7049 83.5213 11.2343C83.2562 10.7636 82.8883 10.3957 82.4176 10.1306C81.9536 9.85881 81.4134 9.72292 80.7969 9.72292C80.1539 9.72292 79.5838 9.87207 79.0866 10.1704C78.5961 10.462 78.2116 10.8564 77.9332 11.3536C77.6548 11.8441 77.5123 12.391 77.5057 12.9942V15.49C77.5057 16.2457 77.6449 16.8986 77.9233 17.4488C78.2083 17.999 78.6094 18.4232 79.1264 18.7215C79.6435 19.0198 80.2566 19.1689 80.9659 19.1689C81.4365 19.1689 81.8674 19.1027 82.2585 18.9701C82.6496 18.8375 82.9844 18.6386 83.2628 18.3735C83.5412 18.1083 83.7533 17.7835 83.8991 17.3991L87.8168 17.6576C87.6179 18.5989 87.2102 19.4208 86.5938 20.1235C85.9839 20.8195 85.1951 21.3631 84.2273 21.7542C83.2661 22.1386 82.1558 22.3309 80.8963 22.3309Z"/>
<path d="M94.9062 13.203V22.0326H90.6704V6.75985H94.7074V9.45446H94.8864C95.2244 8.5662 95.7912 7.86355 96.5866 7.3465C97.3821 6.82283 98.3466 6.56099 99.4801 6.56099C100.541 6.56099 101.465 6.793 102.254 7.25701C103.043 7.72103 103.656 8.38391 104.094 9.24565C104.531 10.1008 104.75 11.1216 104.75 12.3082V22.0326H100.514V13.0638C100.521 12.1292 100.282 11.4 99.7983 10.8763C99.3144 10.346 98.6482 10.0809 97.7997 10.0809C97.2296 10.0809 96.7258 10.2035 96.2883 10.4488C95.8575 10.694 95.5194 11.052 95.2741 11.5226C95.0355 11.9867 94.9129 12.5468 94.9062 13.203Z"/>
<path d="M116.212 6.75985V9.94167H107.015V6.75985H116.212ZM109.103 3.10076H113.338V17.3394C113.338 17.7305 113.398 18.0354 113.517 18.2542C113.637 18.4663 113.802 18.6154 114.015 18.7016C114.233 18.7878 114.485 18.8309 114.77 18.8309C114.969 18.8309 115.168 18.8143 115.367 18.7812C115.566 18.7414 115.718 18.7116 115.824 18.6917L116.49 21.8437C116.278 21.91 115.98 21.9862 115.596 22.0724C115.211 22.1652 114.744 22.2215 114.194 22.2414C113.173 22.2812 112.278 22.1453 111.509 21.8337C110.747 21.5222 110.153 21.0383 109.729 20.382C109.305 19.7258 109.096 18.8972 109.103 17.8962V3.10076Z"/>
</mask>
<path d="M22.0327 1.66895V22.0326H18.3139L9.45455 9.21582H9.3054V22.0326H5V1.66895H8.77841L17.5682 14.4758H17.7472V1.66895H22.0327Z" fill="#263238"/>
<path d="M32.4705 22.3309C30.8995 22.3309 29.5472 22.0127 28.4137 21.3763C27.2868 20.7333 26.4184 19.8252 25.8086 18.6519C25.1987 17.472 24.8938 16.0766 24.8938 14.4658C24.8938 12.8948 25.1987 11.516 25.8086 10.3295C26.4184 9.1429 27.2769 8.21819 28.3839 7.55531C29.4975 6.89243 30.8034 6.56099 32.3015 6.56099C33.3091 6.56099 34.247 6.7234 35.1154 7.04821C35.9904 7.36639 36.7527 7.84698 37.4023 8.48997C38.0586 9.13296 38.569 9.94167 38.9336 10.9161C39.2982 11.8839 39.4805 13.0174 39.4805 14.3167V15.48H26.5842V12.855H35.4933C35.4933 12.2452 35.3607 11.7049 35.0955 11.2343C34.8304 10.7636 34.4625 10.3957 33.9918 10.1306C33.5278 9.85881 32.9876 9.72292 32.3711 9.72292C31.7281 9.72292 31.158 9.87207 30.6609 10.1704C30.1703 10.462 29.7859 10.8564 29.5075 11.3536C29.229 11.8441 29.0865 12.391 29.0799 12.9942V15.49C29.0799 16.2457 29.2191 16.8986 29.4975 17.4488C29.7826 17.999 30.1836 18.4232 30.7006 18.7215C31.2177 19.0198 31.8308 19.1689 32.5401 19.1689C33.0108 19.1689 33.4416 19.1027 33.8327 18.9701C34.2238 18.8375 34.5586 18.6386 34.837 18.3735C35.1154 18.1083 35.3275 17.7835 35.4734 17.3991L39.391 17.6576C39.1921 18.5989 38.7844 19.4208 38.168 20.1235C37.5581 20.8195 36.7693 21.3631 35.8015 21.7542C34.8403 22.1386 33.73 22.3309 32.4705 22.3309Z" fill="#263238"/>
<path d="M45.511 6.75985L48.315 12.0993L51.1886 6.75985H55.5337L51.109 14.3962L55.6531 22.0326H51.3278L48.315 16.7528L45.3519 22.0326H40.9769L45.511 14.3962L41.136 6.75985H45.511Z" fill="#263238"/>
<path d="M64.4031 22.3309C62.8387 22.3309 61.493 21.9994 60.3661 21.3366C59.2459 20.6671 58.3841 19.739 57.7809 18.5525C57.1843 17.3659 56.886 16.0004 56.886 14.4559C56.886 12.8915 57.1876 11.5193 57.7908 10.3394C58.4007 9.15285 59.2657 8.22813 60.386 7.56525C61.5063 6.89574 62.8387 6.56099 64.3832 6.56099C65.7156 6.56099 66.8822 6.80294 67.8832 7.28684C68.8841 7.77074 69.6762 8.4502 70.2596 9.3252C70.8429 10.2002 71.1644 11.2277 71.2241 12.4076H67.2269C67.1142 11.6453 66.8159 11.0321 66.332 10.5681C65.8548 10.0974 65.2283 9.86213 64.4528 9.86213C63.7965 9.86213 63.2231 10.0411 62.7326 10.3991C62.2487 10.7504 61.8709 11.2641 61.5991 11.9403C61.3273 12.6164 61.1914 13.435 61.1914 14.3962C61.1914 15.3707 61.324 16.1992 61.5891 16.882C61.8609 17.5648 62.2421 18.0851 62.7326 18.4431C63.2231 18.801 63.7965 18.98 64.4528 18.98C64.9367 18.98 65.3709 18.8806 65.7553 18.6817C66.1464 18.4829 66.4679 18.1945 66.7198 17.8167C66.9783 17.4322 67.1474 16.9715 67.2269 16.4346H71.2241C71.1578 17.6012 70.8396 18.6287 70.2695 19.517C69.7061 20.3986 68.9272 21.088 67.9329 21.5851C66.9386 22.0823 65.762 22.3309 64.4031 22.3309Z" fill="#263238"/>
<path d="M80.8963 22.3309C79.3253 22.3309 77.973 22.0127 76.8395 21.3763C75.7126 20.7333 74.8442 19.8252 74.2344 18.6519C73.6245 17.472 73.3196 16.0766 73.3196 14.4658C73.3196 12.8948 73.6245 11.516 74.2344 10.3295C74.8442 9.1429 75.7026 8.21819 76.8097 7.55531C77.9233 6.89243 79.2292 6.56099 80.7273 6.56099C81.7348 6.56099 82.6728 6.7234 83.5412 7.04821C84.4162 7.36639 85.1785 7.84698 85.8281 8.48997C86.4844 9.13296 86.9948 9.94167 87.3594 10.9161C87.724 11.8839 87.9062 13.0174 87.9062 14.3167V15.48H75.0099V12.855H83.919C83.919 12.2452 83.7865 11.7049 83.5213 11.2343C83.2562 10.7636 82.8883 10.3957 82.4176 10.1306C81.9536 9.85881 81.4134 9.72292 80.7969 9.72292C80.1539 9.72292 79.5838 9.87207 79.0866 10.1704C78.5961 10.462 78.2116 10.8564 77.9332 11.3536C77.6548 11.8441 77.5123 12.391 77.5057 12.9942V15.49C77.5057 16.2457 77.6449 16.8986 77.9233 17.4488C78.2083 17.999 78.6094 18.4232 79.1264 18.7215C79.6435 19.0198 80.2566 19.1689 80.9659 19.1689C81.4365 19.1689 81.8674 19.1027 82.2585 18.9701C82.6496 18.8375 82.9844 18.6386 83.2628 18.3735C83.5412 18.1083 83.7533 17.7835 83.8991 17.3991L87.8168 17.6576C87.6179 18.5989 87.2102 19.4208 86.5938 20.1235C85.9839 20.8195 85.1951 21.3631 84.2273 21.7542C83.2661 22.1386 82.1558 22.3309 80.8963 22.3309Z" fill="#263238"/>
<path d="M94.9062 13.203V22.0326H90.6704V6.75985H94.7074V9.45446H94.8864C95.2244 8.5662 95.7912 7.86355 96.5866 7.3465C97.3821 6.82283 98.3466 6.56099 99.4801 6.56099C100.541 6.56099 101.465 6.793 102.254 7.25701C103.043 7.72103 103.656 8.38391 104.094 9.24565C104.531 10.1008 104.75 11.1216 104.75 12.3082V22.0326H100.514V13.0638C100.521 12.1292 100.282 11.4 99.7983 10.8763C99.3144 10.346 98.6482 10.0809 97.7997 10.0809C97.2296 10.0809 96.7258 10.2035 96.2883 10.4488C95.8575 10.694 95.5194 11.052 95.2741 11.5226C95.0355 11.9867 94.9129 12.5468 94.9062 13.203Z" fill="#263238"/>
<path d="M116.212 6.75985V9.94167H107.015V6.75985H116.212ZM109.103 3.10076H113.338V17.3394C113.338 17.7305 113.398 18.0354 113.517 18.2542C113.637 18.4663 113.802 18.6154 114.015 18.7016C114.233 18.7878 114.485 18.8309 114.77 18.8309C114.969 18.8309 115.168 18.8143 115.367 18.7812C115.566 18.7414 115.718 18.7116 115.824 18.6917L116.49 21.8437C116.278 21.91 115.98 21.9862 115.596 22.0724C115.211 22.1652 114.744 22.2215 114.194 22.2414C113.173 22.2812 112.278 22.1453 111.509 21.8337C110.747 21.5222 110.153 21.0383 109.729 20.382C109.305 19.7258 109.096 18.8972 109.103 17.8962V3.10076Z" fill="#263238"/>
<path d="M22.0327 1.66895V22.0326H18.3139L9.45455 9.21582H9.3054V22.0326H5V1.66895H8.77841L17.5682 14.4758H17.7472V1.66895H22.0327Z" stroke="black" stroke-width="2" mask="url(#path-1-outside-1_303_877)"/>
<path d="M32.4705 22.3309C30.8995 22.3309 29.5472 22.0127 28.4137 21.3763C27.2868 20.7333 26.4184 19.8252 25.8086 18.6519C25.1987 17.472 24.8938 16.0766 24.8938 14.4658C24.8938 12.8948 25.1987 11.516 25.8086 10.3295C26.4184 9.1429 27.2769 8.21819 28.3839 7.55531C29.4975 6.89243 30.8034 6.56099 32.3015 6.56099C33.3091 6.56099 34.247 6.7234 35.1154 7.04821C35.9904 7.36639 36.7527 7.84698 37.4023 8.48997C38.0586 9.13296 38.569 9.94167 38.9336 10.9161C39.2982 11.8839 39.4805 13.0174 39.4805 14.3167V15.48H26.5842V12.855H35.4933C35.4933 12.2452 35.3607 11.7049 35.0955 11.2343C34.8304 10.7636 34.4625 10.3957 33.9918 10.1306C33.5278 9.85881 32.9876 9.72292 32.3711 9.72292C31.7281 9.72292 31.158 9.87207 30.6609 10.1704C30.1703 10.462 29.7859 10.8564 29.5075 11.3536C29.229 11.8441 29.0865 12.391 29.0799 12.9942V15.49C29.0799 16.2457 29.2191 16.8986 29.4975 17.4488C29.7826 17.999 30.1836 18.4232 30.7006 18.7215C31.2177 19.0198 31.8308 19.1689 32.5401 19.1689C33.0108 19.1689 33.4416 19.1027 33.8327 18.9701C34.2238 18.8375 34.5586 18.6386 34.837 18.3735C35.1154 18.1083 35.3275 17.7835 35.4734 17.3991L39.391 17.6576C39.1921 18.5989 38.7844 19.4208 38.168 20.1235C37.5581 20.8195 36.7693 21.3631 35.8015 21.7542C34.8403 22.1386 33.73 22.3309 32.4705 22.3309Z" stroke="black" stroke-width="2" mask="url(#path-1-outside-1_303_877)"/>
<path d="M45.511 6.75985L48.315 12.0993L51.1886 6.75985H55.5337L51.109 14.3962L55.6531 22.0326H51.3278L48.315 16.7528L45.3519 22.0326H40.9769L45.511 14.3962L41.136 6.75985H45.511Z" stroke="black" stroke-width="2" mask="url(#path-1-outside-1_303_877)"/>
<path d="M64.4031 22.3309C62.8387 22.3309 61.493 21.9994 60.3661 21.3366C59.2459 20.6671 58.3841 19.739 57.7809 18.5525C57.1843 17.3659 56.886 16.0004 56.886 14.4559C56.886 12.8915 57.1876 11.5193 57.7908 10.3394C58.4007 9.15285 59.2657 8.22813 60.386 7.56525C61.5063 6.89574 62.8387 6.56099 64.3832 6.56099C65.7156 6.56099 66.8822 6.80294 67.8832 7.28684C68.8841 7.77074 69.6762 8.4502 70.2596 9.3252C70.8429 10.2002 71.1644 11.2277 71.2241 12.4076H67.2269C67.1142 11.6453 66.8159 11.0321 66.332 10.5681C65.8548 10.0974 65.2283 9.86213 64.4528 9.86213C63.7965 9.86213 63.2231 10.0411 62.7326 10.3991C62.2487 10.7504 61.8709 11.2641 61.5991 11.9403C61.3273 12.6164 61.1914 13.435 61.1914 14.3962C61.1914 15.3707 61.324 16.1992 61.5891 16.882C61.8609 17.5648 62.2421 18.0851 62.7326 18.4431C63.2231 18.801 63.7965 18.98 64.4528 18.98C64.9367 18.98 65.3709 18.8806 65.7553 18.6817C66.1464 18.4829 66.4679 18.1945 66.7198 17.8167C66.9783 17.4322 67.1474 16.9715 67.2269 16.4346H71.2241C71.1578 17.6012 70.8396 18.6287 70.2695 19.517C69.7061 20.3986 68.9272 21.088 67.9329 21.5851C66.9386 22.0823 65.762 22.3309 64.4031 22.3309Z" stroke="black" stroke-width="2" mask="url(#path-1-outside-1_303_877)"/>
<path d="M80.8963 22.3309C79.3253 22.3309 77.973 22.0127 76.8395 21.3763C75.7126 20.7333 74.8442 19.8252 74.2344 18.6519C73.6245 17.472 73.3196 16.0766 73.3196 14.4658C73.3196 12.8948 73.6245 11.516 74.2344 10.3295C74.8442 9.1429 75.7026 8.21819 76.8097 7.55531C77.9233 6.89243 79.2292 6.56099 80.7273 6.56099C81.7348 6.56099 82.6728 6.7234 83.5412 7.04821C84.4162 7.36639 85.1785 7.84698 85.8281 8.48997C86.4844 9.13296 86.9948 9.94167 87.3594 10.9161C87.724 11.8839 87.9062 13.0174 87.9062 14.3167V15.48H75.0099V12.855H83.919C83.919 12.2452 83.7865 11.7049 83.5213 11.2343C83.2562 10.7636 82.8883 10.3957 82.4176 10.1306C81.9536 9.85881 81.4134 9.72292 80.7969 9.72292C80.1539 9.72292 79.5838 9.87207 79.0866 10.1704C78.5961 10.462 78.2116 10.8564 77.9332 11.3536C77.6548 11.8441 77.5123 12.391 77.5057 12.9942V15.49C77.5057 16.2457 77.6449 16.8986 77.9233 17.4488C78.2083 17.999 78.6094 18.4232 79.1264 18.7215C79.6435 19.0198 80.2566 19.1689 80.9659 19.1689C81.4365 19.1689 81.8674 19.1027 82.2585 18.9701C82.6496 18.8375 82.9844 18.6386 83.2628 18.3735C83.5412 18.1083 83.7533 17.7835 83.8991 17.3991L87.8168 17.6576C87.6179 18.5989 87.2102 19.4208 86.5938 20.1235C85.9839 20.8195 85.1951 21.3631 84.2273 21.7542C83.2661 22.1386 82.1558 22.3309 80.8963 22.3309Z" stroke="black" stroke-width="2" mask="url(#path-1-outside-1_303_877)"/>
<path d="M94.9062 13.203V22.0326H90.6704V6.75985H94.7074V9.45446H94.8864C95.2244 8.5662 95.7912 7.86355 96.5866 7.3465C97.3821 6.82283 98.3466 6.56099 99.4801 6.56099C100.541 6.56099 101.465 6.793 102.254 7.25701C103.043 7.72103 103.656 8.38391 104.094 9.24565C104.531 10.1008 104.75 11.1216 104.75 12.3082V22.0326H100.514V13.0638C100.521 12.1292 100.282 11.4 99.7983 10.8763C99.3144 10.346 98.6482 10.0809 97.7997 10.0809C97.2296 10.0809 96.7258 10.2035 96.2883 10.4488C95.8575 10.694 95.5194 11.052 95.2741 11.5226C95.0355 11.9867 94.9129 12.5468 94.9062 13.203Z" stroke="black" stroke-width="2" mask="url(#path-1-outside-1_303_877)"/>
<path d="M116.212 6.75985V9.94167H107.015V6.75985H116.212ZM109.103 3.10076H113.338V17.3394C113.338 17.7305 113.398 18.0354 113.517 18.2542C113.637 18.4663 113.802 18.6154 114.015 18.7016C114.233 18.7878 114.485 18.8309 114.77 18.8309C114.969 18.8309 115.168 18.8143 115.367 18.7812C115.566 18.7414 115.718 18.7116 115.824 18.6917L116.49 21.8437C116.278 21.91 115.98 21.9862 115.596 22.0724C115.211 22.1652 114.744 22.2215 114.194 22.2414C113.173 22.2812 112.278 22.1453 111.509 21.8337C110.747 21.5222 110.153 21.0383 109.729 20.382C109.305 19.7258 109.096 18.8972 109.103 17.8962V3.10076Z" stroke="black" stroke-width="2" mask="url(#path-1-outside-1_303_877)"/>
</g>
<defs>
<filter id="filter0_d_303_877" x="0" y="0.668945" width="121.657" height="30.6619" filterUnits="userSpaceOnUse" color-interpolation-filters="sRGB">
<feFlood flood-opacity="0" result="BackgroundImageFix"/>
<feColorMatrix in="SourceAlpha" type="matrix" values="0 0 0 0 0 0 0 0 0 0 0 0 0 0 0 0 0 0 127 0" result="hardAlpha"/>
<feOffset dy="4"/>
<feGaussianBlur stdDeviation="2"/>
<feComposite in2="hardAlpha" operator="out"/>
<feColorMatrix type="matrix" values="0 0 0 0 0 0 0 0 0 0 0 0 0 0 0 0 0 0 0.25 0"/>
<feBlend mode="normal" in2="BackgroundImageFix" result="effect1_dropShadow_303_877"/>
<feBlend mode="normal" in="SourceGraphic" in2="effect1_dropShadow_303_877" result="shape"/>
</filter>
</defs>
</svg>
